<?xml version="1.0" standalone="no"?>
<!DOCTYPE svg PUBLIC "-//W3C//DTD SVG 1.1//EN" "http://www.w3.org/Graphics/SVG/1.1/DTD/svg11.dtd" >
<svg xmlns="http://www.w3.org/2000/svg">
<metadata></metadata>
<defs>
<font id="globalmedium_stencil" horiz-adv-x="1568" >
<font-face units-per-em="2048" ascent="1638" descent="-410" />
<missing-glyph horiz-adv-x="532" />
<glyph unicode="&#xfb01;" horiz-adv-x="1226" d="M61 858v166h156v84q0 160 75 232.5t224 72.5q89 0 168 -20v-170q-61 18 -125 18q-60 0 -88.5 -29.5t-28.5 -109.5v-78h242v-166h-623zM217 0v776h225v-776h-225zM864 0v1024h226v-1024h-226zM864 1126v224h226v-224h-226z" />
<glyph unicode="&#xfb02;" horiz-adv-x="1280" d="M61 858v166h156v84q0 160 75 232.5t224 72.5q89 0 168 -20v-170q-61 18 -125 18q-60 0 -88.5 -29.5t-28.5 -109.5v-78h242v-166h-623zM217 0v776h225v-776h-225zM864 254v1139h226v-1110q0 -68 18 -97.5t70 -29.5q32 0 67 12v-168q-65 -20 -139 -20q-130 0 -186 64 t-56 210z" />
<glyph horiz-adv-x="2048" />
<glyph horiz-adv-x="2048" />
<glyph unicode="&#xd;" horiz-adv-x="2048" />
<glyph unicode=" "  horiz-adv-x="532" />
<glyph unicode="&#x09;" horiz-adv-x="532" />
<glyph unicode="&#xa0;" horiz-adv-x="532" />
<glyph unicode="!" horiz-adv-x="544" d="M156 725v668h233v-668l-45 -356h-143zM174 0v223h197v-223h-197z" />
<glyph unicode="&#x22;" horiz-adv-x="753" d="M121 1200v193h186v-193l-35 -266h-114zM446 1200v193h187v-193l-35 -266h-117z" />
<glyph unicode="#" horiz-adv-x="1468" d="M76 0l149 287h191l-150 -287h-190zM96 367v176h582l-80 -176h-502zM199 795v176h268l-82 -176h-186zM389 625l385 768h191l-385 -768h-191zM498 0l360 715h193l-361 -715h-192zM758 795l82 176h528v-176h-610zM971 367l82 176h233v-176h-315zM1024 1053l174 340h191 l-175 -340h-190z" />
<glyph unicode="$" horiz-adv-x="1200" d="M96 98v209q104 -67 233 -101t253 -34v-192q-273 3 -486 118zM106 1036q0 97 39 171t107 117.5t151 65.5t179 23v-192q-234 -11 -234 -174q0 -46 26.5 -81.5t71.5 -59.5t103 -44.5t122 -40.5t128 -43t122 -56.5t103 -76.5t71.5 -107.5t26.5 -144.5q0 -101 -37 -179 t-102.5 -125.5t-145 -74t-173.5 -32.5v196q98 13 158.5 60.5t60.5 134.5q0 49 -26.5 87.5t-71.5 64.5t-103.5 48t-123 43t-128.5 44t-122.5 56t-103.5 75t-71.5 104.5t-26.5 140.5zM549 -102h149v-154h-149v154zM549 1495v154h149v-154h-149zM664 1219v192q236 -14 423 -117 v-209q-93 61 -206 95t-217 39z" />
<glyph unicode="%" horiz-adv-x="1660" d="M76 1038q0 153 72 257t208 118v-113q-74 -14 -110.5 -83.5t-36.5 -178.5t36.5 -178.5t110.5 -83.5v-112q-136 14 -208 117t-72 257zM342 2l379 635h131l-330 -635h-180zM438 664v112q74 15 112 84.5t38 177.5t-38 177.5t-112 84.5v113q137 -14 210 -118t73 -257 q0 -100 -30.5 -180t-95.5 -132t-157 -62zM803 760l330 635h180l-379 -635h-131zM942 360q0 153 72.5 257t208.5 118v-112q-74 -15 -111 -85t-37 -178t37 -177.5t111 -84.5v-112q-136 14 -208.5 117t-72.5 257zM1305 -14v112q74 15 111.5 84.5t37.5 177.5t-37.5 178 t-111.5 85v112q137 -14 209.5 -118t72.5 -257q0 -154 -72.5 -257t-209.5 -117z" />
<glyph unicode="&#x26;" horiz-adv-x="1388" d="M94 371q0 219 191 342l139 -113q-92 -79 -92 -201q0 -102 73.5 -166.5t192.5 -64.5q147 0 250 96l168 -131q-156 -153 -426 -153q-145 0 -256 44t-175.5 133.5t-64.5 213.5zM219 1053q0 77 27.5 139.5t71.5 102t102.5 66.5t116.5 39t118 13v-180q-37 -3 -70.5 -13.5 t-65.5 -30t-51 -53t-19 -77.5q0 -26 7 -51t15 -44.5t30 -45.5t35 -40.5t47.5 -44.5t50.5 -43t60 -49l279 -221q45 115 45 268h215q0 -234 -68 -403l162 -129v-266l-934 739q-174 143 -174 324zM737 1233v178q181 -15 344 -121v-184q-96 61 -177 92t-167 35z" />
<glyph unicode="'" horiz-adv-x="430" d="M121 1200v193h186v-193l-35 -266h-114z" />
<glyph unicode="(" horiz-adv-x="636" d="M80 696q0 140 29 281t72 250t98 207.5t102 161.5t88 104h149q-40 -52 -83 -123t-89.5 -172.5t-82 -210t-59 -240t-23.5 -258.5q0 -156 34 -318t88.5 -292t108.5 -228t106 -165h-149q-41 41 -88 103.5t-102 161.5t-98 207.5t-72 249.5t-29 281z" />
<glyph unicode=")" horiz-adv-x="636" d="M16 -307q52 67 106.5 165t109.5 228t89.5 292t34.5 318t-34.5 318t-89.5 292.5t-109.5 228.5t-106.5 165h152q41 -41 88 -104t102 -161.5t98 -207.5t72 -250t29 -281t-29 -281t-72 -249.5t-98 -207.5t-102 -161.5t-88 -103.5h-152z" />
<glyph unicode="*" horiz-adv-x="792" d="M100 983l133 76l60 -35v-66l-133 -77zM100 1188l60 102l131 -78v-67l-55 -33zM338 778v154l59 33l58 -33v-154h-117zM338 1051v69l59 33l58 -33v-69l-58 -33zM338 1239v154h117v-154l-60 -33zM500 1147v65l133 78l59 -102l-133 -76zM502 958v68l55 33l135 -76l-59 -102z " />
<glyph unicode="+" horiz-adv-x="1167" d="M88 582v176h408v407h176v-407h407v-176h-407v-410h-176v410h-408z" />
<glyph unicode="," horiz-adv-x="456" d="M59 -150q31 0 45 6.5t23.5 37t9.5 94.5v235h187v-235q0 -67 -7 -111t-23 -77.5t-47 -51.5t-76 -26.5t-112 -8.5v137z" />
<glyph unicode="-" horiz-adv-x="964" d="M129 508v176h707v-176h-707z" />
<glyph unicode="." horiz-adv-x="444" d="M129 0v223h186v-223h-186z" />
<glyph unicode="/" horiz-adv-x="995" d="M53 0l699 1393h190l-698 -1393h-191z" />
<glyph unicode="0" horiz-adv-x="1427" d="M100 696q0 146 36 271t106 222t180.5 156t251.5 66v-192q-166 -17 -248 -156t-82 -367q0 -229 82 -367t248 -155v-192q-141 7 -251.5 65t-180.5 155t-106 222.5t-36 271.5zM756 -18v192q166 17 247.5 155t81.5 367q0 228 -81.5 367t-247.5 156v192q141 -7 251 -66 t179.5 -156t105 -222t35.5 -271t-35.5 -271.5t-105 -222.5t-179.5 -155t-251 -65z" />
<glyph unicode="1" horiz-adv-x="985" d="M111 0v195h829v-195h-829zM111 993v228l297 172h235v-1117h-235v887z" />
<glyph unicode="2" horiz-adv-x="1245" d="M102 2v219l449 336q58 43 98 76t87 79t75.5 86t48 89t19.5 98q0 111 -74 168.5t-189 65.5v194q83 0 156.5 -14.5t137.5 -46.5t110 -79t72 -115.5t26 -153.5q0 -43 -7.5 -84t-26 -79.5t-36 -70.5t-50.5 -69t-55.5 -61.5t-66 -62t-66.5 -56.5t-71 -58l-575 -461h-62z M123 1085v209q191 104 412 117v-192q-211 -10 -412 -134zM295 2l254 203h600v-203h-854z" />
<glyph unicode="3" horiz-adv-x="1241" d="M104 88v209q196 -114 422 -125v-190q-259 14 -422 106zM129 1198v195h662l-183 -195h-479zM336 645v143l565 605h178v-117l-438 -445q262 -7 389 -106t127 -293q0 -217 -148.5 -333t-400.5 -119v194q301 17 301 244q0 120 -94 173.5t-278 53.5h-201z" />
<glyph unicode="4" horiz-adv-x="1292" d="M55 317v197l711 879h252v-797h-236v543l-641 -822h-86zM246 317l151 197h822v-197h-201v-317h-236v317h-536z" />
<glyph unicode="5" horiz-adv-x="1232" d="M98 88v209q196 -114 420 -125v-190q-248 14 -420 106zM174 696l10 697h207l-10 -510h258q127 0 225.5 -33t160.5 -92.5t94 -139.5t32 -176q0 -217 -150.5 -338t-400.5 -124v194q141 9 222 79t81 196q0 116 -89.5 181.5t-233.5 65.5h-406zM469 1198l4 195h596v-195h-600z " />
<glyph unicode="6" horiz-adv-x="1310" d="M102 676q0 105 17.5 201.5t58 188t100.5 161.5t151.5 118t205.5 62v-201q-149 -38 -221 -179.5t-72 -391.5q0 -128 29.5 -223t96 -158t167.5 -78v-194q-136 7 -239.5 61t-167 147.5t-95 215t-31.5 270.5zM426 612v152q143 110 344 110q208 0 331.5 -114.5t123.5 -292.5 q0 -92 -33 -176t-94.5 -151t-160 -109.5t-220.5 -48.5v192q114 9 187 85.5t73 186.5q0 122 -78.5 195.5t-204.5 73.5q-74 0 -144.5 -28.5t-123.5 -74.5zM717 1219v194h12q124 0 216 -23t204 -85v-209q-120 73 -208.5 98.5t-223.5 24.5z" />
<glyph unicode="7" horiz-adv-x="1044" d="M53 1198v195h766l-143 -195h-623zM289 0q0 183 33 338.5t113.5 322.5t195 334.5t297.5 397.5h82v-195q-122 -161 -204.5 -293t-150 -279.5t-99.5 -301.5t-32 -324h-235z" />
<glyph unicode="8" horiz-adv-x="1310" d="M94 367q0 125 94 220t250 132q-126 39 -201 122t-75 203q0 168 123 262t323 105v-184q-106 -10 -164.5 -66.5t-58.5 -136.5t58.5 -132.5t164.5 -78.5v-166q-122 -30 -196 -91t-74 -153q0 -99 70.5 -159.5t199.5 -69.5v-194q-147 6 -261 49.5t-183.5 130.5t-69.5 207z M690 -20v194q127 6 206 66.5t79 160.5q0 92 -78 153t-207 87v160q106 26 170 84t64 143q0 81 -60 136.5t-174 62.5v186q94 -4 175.5 -29t145 -70t100 -113.5t36.5 -153.5q0 -108 -73 -193.5t-197 -128.5q163 -40 252.5 -126t89.5 -210t-70 -216t-188 -139.5t-271 -53.5z" />
<glyph unicode="9" horiz-adv-x="1310" d="M86 930q0 92 33 176t94.5 151t160 109.5t220.5 48.5v-192q-114 -9 -187 -86t-73 -187q0 -122 78 -195t204 -73q74 0 145 28t124 74v-151q-76 -58 -167.5 -84.5t-176.5 -26.5q-208 0 -331.5 114.5t-123.5 293.5zM162 92v209q120 -73 208.5 -98.5t223.5 -24.5v-194h-12 q-124 0 -216 23t-204 85zM676 -10v200q293 75 293 572q0 128 -29.5 223t-96 158t-167.5 78v194q136 -7 239 -61t166.5 -147.5t95 -215t31.5 -270.5q0 -105 -17.5 -201.5t-57.5 -188t-100.5 -161.5t-151.5 -118t-205 -62z" />
<glyph unicode=":" horiz-adv-x="444" d="M129 143v226h186v-226h-186zM129 635v225h186v-225h-186z" />
<glyph unicode=";" horiz-adv-x="514" d="M98 -150q23 0 34 3t22.5 16t15.5 41.5t4 77.5v235h186v-235q0 -84 -10 -133.5t-40 -83t-79.5 -46t-132.5 -12.5v137zM174 635v225h186v-225h-186z" />
<glyph unicode="&#x3c;" horiz-adv-x="1157" d="M123 539v258l911 215v-176l-708 -168l708 -168v-174z" />
<glyph unicode="=" horiz-adv-x="1181" d="M135 367v176h912v-176h-912zM135 795v176h912v-176h-912z" />
<glyph unicode="&#x3e;" horiz-adv-x="1157" d="M123 326v174l708 168l-708 168v176l911 -215v-258z" />
<glyph unicode="?" horiz-adv-x="1046" d="M80 1096v209q174 108 424 108q100 0 183.5 -24.5t148 -73.5t101 -128.5t36.5 -182.5q0 -377 -461 -414l-18 -221h-166l-4 360q407 0 407 256q0 118 -74 177t-198 59q-82 0 -185 -30t-194 -95zM317 0v223h197v-223h-197z" />
<glyph unicode="@" horiz-adv-x="1669" d="M90 516q0 259 98 458.5t282.5 314.5t430.5 124v-164q-132 -7 -241.5 -56.5t-191 -139t-126.5 -227t-45 -310.5q0 -367 180.5 -562.5t507.5 -195.5v-168q-216 0 -387 69t-281.5 193t-168.5 292.5t-58 371.5zM600 498q0 237 111.5 372.5t310.5 135.5q144 0 246 -82v-162 q-72 84 -187 84q-132 0 -197 -96.5t-65 -251.5q0 -101 26 -178t86 -125t150 -48q115 0 187 84v-159q-101 -84 -246 -84q-199 0 -310.5 136.5t-111.5 373.5zM983 1247v166q279 -10 427.5 -157.5t148.5 -403.5v-844h-209v854q0 186 -97 281t-270 104z" />
<glyph unicode="A" horiz-adv-x="1400" d="M27 0l518 1329l106 -285l-379 -1044h-245zM467 305l63 184h412l-342 914h244l520 -1403h-246l-110 305h-541z" />
<glyph unicode="B" horiz-adv-x="1339" d="M170 0v1393h236v-1393h-236zM487 0v195h244q136 0 203 47.5t67 163.5t-67 163t-203 47h-244v187h193q139 0 204.5 41t65.5 155t-66.5 156.5t-203.5 42.5h-193v195h203q252 0 379 -91.5t127 -281.5q0 -106 -50 -183.5t-155 -111.5q128 -28 192 -118.5t64 -215.5 q0 -202 -126.5 -296.5t-379.5 -94.5h-254z" />
<glyph unicode="C" horiz-adv-x="1359" d="M90 696q0 318 180 510.5t484 206.5v-194q-194 -19 -306 -157t-112 -366t112 -365.5t306 -156.5v-194q-304 14 -484 206t-180 510zM836 -20v192q238 7 426 137v-211q-189 -110 -426 -118zM836 1221v192q235 -8 426 -119v-211q-190 131 -426 138z" />
<glyph unicode="D" horiz-adv-x="1456" d="M170 0v1393h236v-1393h-236zM487 0v195h183q220 0 335 132.5t115 368.5q0 235 -115 368.5t-335 133.5h-183v195h183q167 0 300 -53t219 -147t131.5 -220.5t45.5 -276.5q0 -151 -45.5 -277.5t-131.5 -220t-219 -146t-300 -52.5h-183z" />
<glyph unicode="E" horiz-adv-x="1247" d="M170 0v1393h236v-1393h-236zM487 0v195h660v-195h-660zM487 612v195h598v-195h-598zM487 1198v195h639v-195h-639z" />
<glyph unicode="F" horiz-adv-x="1208" d="M170 0v1393h236v-1393h-236zM487 561v195h598v-195h-598zM487 1198v195h639v-195h-639z" />
<glyph unicode="G" horiz-adv-x="1409" d="M90 696q0 323 188.5 517t499.5 200v-194q-207 -12 -324.5 -150t-117.5 -373q0 -246 127.5 -385t345.5 -139q80 0 166 25v-201q-88 -16 -180 -16q-321 0 -513 193.5t-192 522.5zM786 565v187h496v-633q-107 -70 -225 -105v551h-271zM860 1221v190q232 -11 422 -117v-211 q-177 124 -422 138z" />
<glyph unicode="H" horiz-adv-x="1482" d="M170 0v1393h236v-586h589v-195h-589v-612h-236zM1077 0v1393h236v-1393h-236z" />
<glyph unicode="I" horiz-adv-x="575" d="M170 0v1393h236v-1393h-236z" />
<glyph unicode="J" horiz-adv-x="917" d="M76 29v188q39 -18 102.5 -31.5t122.5 -13.5q113 0 167 55t54 181v790h-399v195h635v-990q0 -206 -95 -314.5t-317 -108.5q-66 0 -142.5 13t-127.5 36z" />
<glyph unicode="K" horiz-adv-x="1308" d="M170 0v1393h236v-1393h-236zM487 715l539 678h260l-526 -670l540 -723h-270z" />
<glyph unicode="L" horiz-adv-x="1142" d="M170 0v1393h236v-1393h-236zM487 0v195h619v-195h-619z" />
<glyph unicode="M" horiz-adv-x="1769" d="M170 0v1337l215 -512v-825h-215zM238 1393h217l538 -1235l-67 -158h-107zM930 502l383 891h215l-490 -1131zM1368 0v807l231 557v-1364h-231z" />
<glyph unicode="N" horiz-adv-x="1523" d="M170 0v1393h211v-1393h-211zM463 926v374l891 -1228v-72h-226zM1143 504v889h211v-1182z" />
<glyph unicode="O" d="M88 696q0 145 43 271.5t123.5 223.5t206 156t282.5 66v-194q-133 -9 -226 -78.5t-138 -182.5t-45 -262q0 -228 105 -368.5t304 -153.5v-194q-157 7 -282.5 65t-206 155t-123.5 223.5t-43 272.5zM825 -20v194q199 13 304.5 154t105.5 368q0 226 -105.5 368t-304.5 155v194 q157 -7 282.5 -66t206.5 -156t124 -223.5t43 -271.5q0 -146 -43 -272.5t-124 -223.5t-206.5 -155t-282.5 -65z" />
<glyph unicode="P" horiz-adv-x="1261" d="M170 0v1393h236v-1393h-236zM487 514v197h193q137 0 209 57.5t72 185.5t-72 186t-209 58h-193v195h213q246 0 376 -116t130 -323q0 -208 -130 -324t-376 -116h-213z" />
<glyph unicode="Q" d="M88 696q0 145 43 271.5t123.5 223.5t206 156t282.5 66v-194q-133 -9 -226 -78.5t-138 -182.5t-45 -262q0 -239 116 -381.5t334 -142.5q44 0 64 2l514 -481h-277l-321 287q-161 3 -290.5 60t-213 154t-128 225.5t-44.5 276.5zM825 1219v194q157 -7 282.5 -66t206.5 -156 t124 -223.5t43 -271.5q0 -231 -101 -401t-280 -244l-156 146q134 36 212.5 167.5t78.5 331.5q0 226 -105.5 368t-304.5 155z" />
<glyph unicode="R" horiz-adv-x="1333" d="M170 0v1393h236v-1393h-236zM487 545v196h193q140 0 210.5 51t70.5 177t-70.5 177.5t-210.5 51.5h-193v195h213q250 0 378 -106.5t128 -317.5q0 -161 -82 -260t-241 -131l401 -578h-264l-377 545h-156z" />
<glyph unicode="S" horiz-adv-x="1212" d="M96 98v209q104 -67 233 -101t253 -34v-192q-273 3 -486 118zM106 1036q0 97 39 171t107 117.5t151 65.5t179 23v-192q-234 -11 -234 -174q0 -46 26.5 -81.5t71.5 -59.5t103 -44.5t122 -40.5t128 -43t122 -56.5t103 -76.5t71.5 -107.5t26.5 -144.5q0 -101 -37 -179 t-102.5 -125.5t-145 -74t-173.5 -32.5v196q98 13 158.5 60.5t60.5 134.5q0 49 -26.5 87.5t-71.5 64.5t-103.5 48t-123 43t-128.5 44t-122.5 56t-103.5 75t-71.5 104.5t-26.5 140.5zM664 1219v192q236 -14 423 -117v-209q-93 61 -206 95t-217 39z" />
<glyph unicode="T" horiz-adv-x="1148" d="M37 1198v195h1075v-195h-1075zM457 0v1116h235v-1116h-235z" />
<glyph unicode="U" horiz-adv-x="1454" d="M156 508v885h235v-842q0 -176 66.5 -271.5t228.5 -105.5v-194q-115 5 -206.5 36.5t-151 80.5t-99 116.5t-56.5 140t-17 154.5zM768 -20v194q162 10 228.5 105.5t66.5 271.5v842h235v-885q0 -105 -29 -194.5t-89.5 -164t-165.5 -119t-246 -50.5z" />
<glyph unicode="V" horiz-adv-x="1392" d="M29 1393h245l519 -1403h-244zM741 348l379 1045h246l-518 -1330z" />
<glyph unicode="W" horiz-adv-x="2004" d="M47 1393h232l393 -1403h-217zM635 420l246 973h229l-377 -1321zM1044 862l113 398l330 -1270h-207zM1456 420l273 973h229l-397 -1356z" />
<glyph unicode="X" horiz-adv-x="1325" d="M6 0l469 657l127 -178l-336 -479h-260zM37 1393h272l1024 -1393h-276zM725 967l289 426h258l-420 -602z" />
<glyph unicode="Y" horiz-adv-x="1343" d="M25 1393h249l514 -904v-489h-235v461zM725 768l346 625h250l-477 -836z" />
<glyph unicode="Z" horiz-adv-x="1200" d="M66 0v190l917 1203h125v-191l-924 -1202h-118zM100 1198v195h781l-150 -195h-631zM287 0l149 195h692v-195h-841z" />
<glyph unicode="[" horiz-adv-x="708" d="M154 -307v2007h493v-166h-299v-1675h309v-166h-503z" />
<glyph unicode="\" horiz-adv-x="995" d="M53 1393h191l698 -1393h-190z" />
<glyph unicode="]" horiz-adv-x="708" d="M51 -141h309v1675h-299v166h494v-2007h-504v166z" />
<glyph unicode="^" horiz-adv-x="843" d="M117 600l305 250l305 -250l-65 -96l-240 166l-240 -166z" />
<glyph unicode="_" horiz-adv-x="1169" d="M129 -82h911v-176h-911v176z" />
<glyph unicode="`" horiz-adv-x="569" d="M102 1290v72l80 111l285 -252l-70 -95z" />
<glyph unicode="a" horiz-adv-x="1150" d="M76 281q0 342 512 342h125v-154h-109q-162 0 -228.5 -42.5t-66.5 -119.5q0 -73 54.5 -114t144.5 -41q125 0 205 69v-149q-114 -92 -283 -92q-162 0 -258 85.5t-96 215.5zM127 715v190q69 63 182.5 101t251.5 38q225 0 342 -101t117 -277v-666h-225v676q0 85 -61 137.5 t-195 52.5q-111 0 -222.5 -37t-189.5 -114z" />
<glyph unicode="b" horiz-adv-x="1232" d="M141 0v1393h226v-1393h-226zM449 66v174q73 -88 194 -88q91 0 152.5 49.5t87.5 128t26 182.5t-26 182.5t-87.5 128t-152.5 49.5q-121 0 -194 -88v174q106 86 258 86q206 0 323 -142t117 -390t-117 -390t-323 -142q-152 0 -258 86z" />
<glyph unicode="c" horiz-adv-x="1077" d="M82 512q0 240 137 383t375 149v-174q-125 -15 -200 -108.5t-75 -249.5t75 -249.5t200 -108.5v-174q-238 6 -375 149t-137 383zM676 -18v170q170 11 305 149v-195q-45 -45 -123.5 -79.5t-181.5 -44.5zM676 872v170q103 -10 181.5 -44.5t123.5 -79.5v-195 q-135 138 -305 149z" />
<glyph unicode="d" horiz-adv-x="1232" d="M86 512q0 248 117 390t323 142q152 0 258 -86v-174q-73 88 -194 88q-91 0 -152.5 -49.5t-87.5 -128t-26 -182.5t26 -182.5t87.5 -128t152.5 -49.5q121 0 194 88v-174q-106 -86 -258 -86q-206 0 -323 142t-117 390zM866 0v1393h226v-1393h-226z" />
<glyph unicode="e" horiz-adv-x="1169" d="M82 512q0 233 132 376.5t353 155.5v-174q-252 -24 -252 -364q0 -176 86.5 -265t245.5 -89q260 0 406 149v-184q-65 -58 -176 -97.5t-263 -39.5q-251 0 -391.5 142.5t-140.5 389.5zM399 465v149h469q-1 40 -7 72.5t-21 66t-38 57t-62 40t-91 20.5v172q98 -5 175 -35.5 t125.5 -77.5t80 -111.5t44.5 -133t13 -147.5q0 -26 -4 -72h-684z" />
<glyph unicode="f" horiz-adv-x="729" d="M61 858v166h156v84q0 160 75 232.5t224 72.5q89 0 168 -20v-170q-61 18 -125 18q-60 0 -88.5 -29.5t-28.5 -109.5v-78h242v-166h-623zM217 0v776h225v-776h-225z" />
<glyph unicode="g" horiz-adv-x="1232" d="M86 532q0 232 117.5 372t328.5 140q150 0 252 -79v-172q-73 79 -192 79q-132 0 -200 -93.5t-68 -246.5q0 -71 15 -130.5t46 -107t84 -74.5t123 -27q119 0 192 79v-163q-103 -89 -252 -89q-211 0 -328.5 140t-117.5 372zM158 -147q81 -45 197.5 -73t201.5 -28 q144 0 226.5 68t82.5 211v993h226v-983q0 -241 -127 -356t-379 -115q-120 0 -236.5 24t-191.5 64v195z" />
<glyph unicode="h" horiz-adv-x="1202" d="M141 0v1393h226v-1393h-226zM449 721v192q111 131 288 131q171 0 252.5 -102t81.5 -287v-655h-225v627q0 235 -193 235q-131 0 -204 -141z" />
<glyph unicode="i" horiz-adv-x="505" d="M141 0v1024h226v-1024h-226zM141 1126v224h226v-224h-226z" />
<glyph unicode="j" horiz-adv-x="505" d="M-14 -221q34 -12 67 -12q51 0 69.5 29.5t18.5 97.5v1130h226v-1159q0 -146 -56 -210.5t-186 -64.5q-71 0 -139 21v168zM141 1126v224h226v-224h-226z" />
<glyph unicode="k" horiz-adv-x="1157" d="M141 0v1393h226v-1393h-226zM449 553l401 471h274l-403 -463l418 -561h-281z" />
<glyph unicode="l" horiz-adv-x="548" d="M135 254v1139h225v-1110q0 -68 18 -97.5t68 -29.5q33 0 68 12v-168q-65 -20 -139 -20q-130 0 -185 64t-55 210z" />
<glyph unicode="m" horiz-adv-x="1904" d="M141 0v1024h226v-1024h-226zM449 721v192q111 131 288 131q171 0 252.5 -102t81.5 -287v-655h-225v627q0 235 -193 235q-131 0 -204 -141zM1118 881q122 163 324 163q171 0 251.5 -102t80.5 -287v-655h-226v627q0 235 -192 235q-131 0 -205 -143q-5 78 -33 162z" />
<glyph unicode="n" horiz-adv-x="1202" d="M141 0v1024h226v-1024h-226zM449 721v192q111 131 288 131q171 0 252.5 -102t81.5 -287v-655h-225v627q0 235 -193 235q-131 0 -204 -141z" />
<glyph unicode="o" horiz-adv-x="1206" d="M82 512q0 105 31 197t89 164.5t150 117t207 51.5v-172q-83 -12 -139 -68.5t-78.5 -130t-22.5 -159.5q0 -87 22.5 -160.5t78.5 -129.5t139 -68v-172q-115 7 -207 51.5t-150 117t-89 164.5t-31 197zM641 -18v172q86 11 143 67t80 129.5t23 161.5t-23 161.5t-80 129.5 t-143 67v172q154 -8 265.5 -82.5t164.5 -190t53 -257.5t-53 -257.5t-164.5 -190t-265.5 -82.5z" />
<glyph unicode="p" horiz-adv-x="1232" d="M141 -389v1413h226v-1413h-226zM449 66v174q73 -88 194 -88q91 0 152.5 49.5t87.5 128t26 182.5t-26 182.5t-87.5 128t-152.5 49.5q-121 0 -194 -88v174q106 86 258 86q206 0 323 -142t117 -390t-117 -390t-323 -142q-152 0 -258 86z" />
<glyph unicode="q" horiz-adv-x="1232" d="M86 512q0 248 117 390t323 142q152 0 258 -86v-174q-73 88 -194 88q-91 0 -152.5 -49.5t-87.5 -128t-26 -182.5t26 -182.5t87.5 -128t152.5 -49.5q121 0 194 88v-174q-106 -86 -258 -86q-206 0 -323 142t-117 390zM866 -389v1413h226v-1413h-226z" />
<glyph unicode="r" horiz-adv-x="778" d="M141 0v1024h226v-1024h-226zM449 682v211q110 151 282 151v-221q-194 0 -282 -141z" />
<glyph unicode="s" horiz-adv-x="1030" d="M90 92v191q172 -122 393 -125v-178q-240 8 -393 112zM100 748q0 73 29.5 129t82 91.5t121 54.5t150.5 21v-178q-75 -5 -113 -29.5t-38 -80.5q0 -37 34 -63t88.5 -41.5t120 -31t131 -38t120 -55t88.5 -90.5t34 -136q0 -148 -101 -229t-282 -90v180q146 16 146 125 q0 33 -26.5 57.5t-69 38.5t-97.5 29.5t-112.5 29t-112.5 39t-97.5 57.5t-69 86t-26.5 124zM565 864v178q210 -11 353 -110v-191q-162 114 -353 123z" />
<glyph unicode="t" horiz-adv-x="724" d="M57 858v166h154v246h225v-246h244v-166h-623zM211 285v493h225v-487q0 -71 23.5 -105t93.5 -34q65 0 127 22v-164q-92 -30 -205 -30q-80 0 -133 20.5t-81 62.5t-39 94t-11 128z" />
<glyph unicode="u" horiz-adv-x="1191" d="M131 369v655h225v-627q0 -235 193 -235q132 0 205 141v-192q-111 -131 -289 -131q-171 0 -252.5 102t-81.5 287zM836 0v1024h225v-1024h-225z" />
<glyph unicode="v" horiz-adv-x="1150" d="M35 1024h246l417 -1040h-219zM623 385l247 639h246l-385 -901z" />
<glyph unicode="w" horiz-adv-x="1695" d="M49 1024h232l333 -1040h-219zM555 438l190 586h203l-291 -915zM887 565l104 326l289 -907h-211zM1223 430l192 594h230l-310 -944z" />
<glyph unicode="x" horiz-adv-x="1064" d="M16 0l330 465l127 -170l-205 -295h-252zM43 1024h252l756 -1024h-267zM588 764l182 260h246l-303 -428z" />
<glyph unicode="y" horiz-adv-x="1148" d="M35 1024h244l249 -602l-116 -275zM266 -410l604 1434h244l-614 -1434h-234z" />
<glyph unicode="z" horiz-adv-x="1011" d="M70 0v166l708 858h129v-166l-712 -858h-125zM94 858v166h578l-137 -166h-441zM301 0l137 166h510v-166h-647z" />
<glyph unicode="{" horiz-adv-x="714" d="M61 621v151q88 0 131.5 36.5t43.5 123.5q0 58 -20.5 192t-20.5 201q0 87 26 153t68.5 105.5t104 64t123.5 33.5t136 9v-162q-136 0 -185.5 -50t-49.5 -161q0 -57 19.5 -185t19.5 -180q0 -100 -57 -169.5t-171 -86.5q114 -17 171 -86.5t57 -169.5q0 -52 -19.5 -179.5 t-19.5 -184.5q0 -111 49.5 -161t185.5 -50v-162q-74 0 -136 9t-123.5 33.5t-104 64t-68.5 105.5t-26 153q0 67 20.5 201t20.5 192q0 87 -43.5 123.5t-131.5 36.5z" />
<glyph unicode="|" horiz-adv-x="460" d="M154 -256v1905h151v-1905h-151z" />
<glyph unicode="}" horiz-adv-x="714" d="M61 -135q136 0 186 50t50 161q0 57 -18.5 184.5t-18.5 179.5q0 101 57 170t170 86q-113 17 -170 86t-57 170q0 52 18.5 180t18.5 185q0 111 -50 161t-186 50v162q459 0 459 -365q0 -67 -20.5 -201t-20.5 -192q0 -87 43.5 -123.5t130.5 -36.5v-151q-87 0 -130.5 -36.5 t-43.5 -123.5q0 -58 20.5 -192t20.5 -201q0 -365 -459 -365v162z" />
<glyph unicode="~" horiz-adv-x="1011" d="M131 565q0 124 44 173.5t120 49.5q43 0 206 -36.5t195 -36.5q64 0 64 73h127q0 -124 -44 -173.5t-120 -49.5q-49 0 -209.5 37t-191.5 37q-64 0 -64 -74h-127z" />
<glyph unicode="&#xa1;" horiz-adv-x="512" d="M139 299l45 356h144l45 -356v-668h-234v668zM158 801v223h196v-223h-196z" />
<glyph unicode="&#xa2;" horiz-adv-x="1097" d="M82 512q0 240 137 383t375 149v-174q-125 -15 -200 -108.5t-75 -249.5t75 -249.5t200 -108.5v-174q-238 6 -375 149t-137 383zM520 -92h152v-164h-152v164zM520 1126v164h152v-164h-152zM676 -18v170q170 11 305 149v-195q-45 -45 -123.5 -79.5t-181.5 -44.5zM676 872 v170q103 -10 181.5 -44.5t123.5 -79.5v-195q-135 138 -305 149z" />
<glyph unicode="&#xa3;" horiz-adv-x="1343" d="M96 0v195h1131v-195h-1131zM96 580v176h170v248q0 105 39 185t107.5 128t156.5 72t193 24q236 0 455 -119v-209q-110 67 -220.5 101.5t-195.5 34.5q-83 0 -148 -22t-109 -77t-44 -137v-709h-234v304h-170zM582 580v176h426v-176h-426z" />
<glyph unicode="&#xa4;" horiz-adv-x="1251" d="M129 696q0 244 152 387l-134 185h138l88 -121q95 53 213 59v-137q-137 -13 -210 -114t-73 -259q0 -159 72.5 -259t210.5 -113v-138q-116 6 -213 60l-88 -121h-138l132 184q-150 141 -150 387zM668 186v138q136 13 208 113t72 259q0 158 -72 259t-208 114v137 q114 -6 213 -59l86 121h137l-133 -185q74 -68 112.5 -168t38.5 -219q0 -248 -151 -387l133 -184h-137l-86 121q-101 -55 -213 -60z" />
<glyph unicode="&#xa5;" horiz-adv-x="1411" d="M57 1393h250l514 -904v-489h-235v397h-350v176h286zM758 768l346 625h250l-477 -836zM903 397v41l78 135h188v-176h-266z" />
<glyph unicode="&#xa6;" horiz-adv-x="468" d="M158 -256v778h151v-778h-151zM158 870v779h151v-779h-151z" />
<glyph unicode="&#xa7;" horiz-adv-x="1239" d="M113 496q0 48 22 100q58 -62 146.5 -107.5t179 -72t188.5 -51.5t182 -53.5t152.5 -68t107.5 -106t39 -157.5q0 -83 -27.5 -149.5t-73.5 -110t-110 -73t-132.5 -42t-145.5 -13.5v191q250 16 250 176q0 55 -43 93t-111.5 59.5t-151.5 40t-166 43t-151.5 58.5t-111.5 96 t-43 147zM113 1028q0 82 27.5 148.5t73.5 110t109.5 73t132.5 42t146 13.5v-192q-250 -12 -250 -174q0 -55 43 -93t111.5 -59.5t151.5 -40t166 -43t151.5 -58.5t111.5 -96t43 -147q0 -48 -22 -100q-61 58 -141.5 102.5t-159.5 69.5t-165 49.5t-161 42t-143.5 47t-117.5 66 t-78 97.5t-29 142zM135 -80q94 -61 207.5 -95.5t216.5 -39.5v-191q-236 14 -424 115v211zM684 1221v192q217 -13 410 -117v-209q-95 61 -203 95t-207 39z" />
<glyph unicode="&#xa8;" horiz-adv-x="768" d="M102 1126v224h187v-224h-187zM481 1126v224h185v-224h-185z" />
<glyph unicode="&#xa9;" horiz-adv-x="1005" d="M92 983q0 159 106.5 276t262.5 132v-31q-143 -15 -240.5 -123t-97.5 -254t97.5 -254t240.5 -123v-31q-156 15 -262.5 132.5t-106.5 275.5zM264 983q0 102 53.5 168t143.5 80v-76q-52 -15 -80.5 -59.5t-28.5 -112.5q0 -67 29 -112t80 -60v-76q-90 14 -143.5 80t-53.5 168z M543 575v31q143 15 240.5 123t97.5 254t-97.5 254t-240.5 123v31q156 -15 262 -132t106 -276q0 -158 -106 -275.5t-262 -132.5zM543 733v70q74 7 131 47v-76q-67 -36 -131 -41zM543 1161v72q64 -5 131 -41v-76q-64 39 -131 45z" />
<glyph unicode="&#xaa;" horiz-adv-x="745" d="M129 705v96h479v-96h-479zM129 1032q0 168 256 168h16v-82h-6q-76 0 -106.5 -17.5t-30.5 -53.5q0 -34 25.5 -53t66.5 -19q30 0 51 8v-84q-47 -18 -96 -18q-81 0 -128.5 43t-47.5 108zM156 1241v102q74 70 219 70q115 0 174 -50t59 -140v-332h-125v338q0 86 -121 86 q-56 0 -112 -19t-94 -55z" />
<glyph unicode="&#xab;" horiz-adv-x="1083" d="M78 512l348 403h156l-332 -403l332 -403h-156zM487 512l349 403h155l-332 -403l332 -403h-155z" />
<glyph unicode="&#xac;" horiz-adv-x="1169" d="M113 795v176h911v-604h-176v428h-735z" />
<glyph unicode="&#xad;" horiz-adv-x="964" d="M129 508v176h707v-176h-707z" />
<glyph unicode="&#xae;" horiz-adv-x="1005" d="M92 983q0 159 106.5 276t262.5 132v-31q-143 -15 -240.5 -123t-97.5 -254t97.5 -254t240.5 -123v-31q-156 15 -262.5 132.5t-106.5 275.5zM328 737v260h178q96 -3 96 78q0 78 -96 78h-178v72h184q178 0 178 -150q0 -56 -29 -91.5t-83 -45.5l139 -201h-94l-134 189h-75 v-189h-86zM543 575v31q143 15 240.5 123t97.5 254t-97.5 254t-240.5 123v31q157 -15 262.5 -131.5t105.5 -276.5q0 -158 -105.5 -275.5t-262.5 -132.5z" />
<glyph unicode="&#xaf;" horiz-adv-x="806" d="M102 1167v148h603v-148h-603z" />
<glyph unicode="&#xb0;" horiz-adv-x="575" d="M94 1221q0 69 44 121.5t110 66.5v-106q-51 -23 -51 -82t51 -82v-109q-66 14 -110 67.5t-44 123.5zM330 1030v109q51 23 51 82t-51 82v106q65 -14 108 -67t43 -121q0 -70 -42.5 -123.5t-108.5 -67.5z" />
<glyph unicode="&#xb1;" horiz-adv-x="1224" d="M117 121v176h991v-176h-991zM117 682v176h407v307h176v-307h408v-176h-408v-307h-176v307h-407z" />
<glyph unicode="&#xb2;" horiz-adv-x="696" d="M82 901v115h530v-115h-530zM92 1436v114q116 58 252 58q111 0 182.5 -52t71.5 -155q0 -36 -12 -69.5t-28.5 -58t-52.5 -58t-63 -55t-82 -62.5h-174q75 56 108.5 81t75 60t56.5 55t26 44.5t11 50.5q0 59 -39.5 85.5t-101.5 26.5q-117 0 -230 -65z" />
<glyph unicode="&#xb3;" horiz-adv-x="696" d="M84 944v117q87 -51 192 -62v-106q-118 11 -192 51zM96 1489v108h482v-61l-211 -215q125 -5 186 -54t61 -147q0 -106 -68.5 -164.5t-187.5 -64.5v108q119 16 119 113q0 57 -44 82t-130 25h-106v77l182 193h-283z" />
<glyph unicode="&#xb4;" horiz-adv-x="569" d="M102 1221l285 252l80 -111v-72l-293 -164z" />
<glyph unicode="&#xb6;" horiz-adv-x="1282" d="M72 954q0 207 132 323t378 116h217v-1393h-187v514h-30q-246 0 -378 116t-132 324zM926 0v1393h176v-1393h-176z" />
<glyph unicode="&#xb7;" horiz-adv-x="444" d="M129 389v225h186v-225h-186z" />
<glyph unicode="&#xb8;" horiz-adv-x="503" d="M113 -287l96 205h162l-88 -266h-170v61z" />
<glyph unicode="&#xb9;" horiz-adv-x="696" d="M106 901v109h525v-109h-525zM109 1386v127l194 84h131v-505h-131v378z" />
<glyph unicode="&#xba;" horiz-adv-x="788" d="M131 705v96h526v-96h-526zM131 1147q0 103 57.5 177t163.5 87v-98q-47 -14 -68.5 -60t-21.5 -106q0 -61 21.5 -106.5t68.5 -59.5v-98q-106 13 -163.5 86.5t-57.5 177.5zM434 883v98q48 14 70 60t22 106q0 59 -22.5 105.5t-69.5 60.5v98q106 -13 164.5 -87t58.5 -177 q0 -104 -58.5 -177.5t-164.5 -86.5z" />
<glyph unicode="&#xbb;" horiz-adv-x="1083" d="M90 109l334 403l-334 403h158l346 -403l-346 -403h-158zM500 109l334 403l-334 403h157l347 -403l-347 -403h-157z" />
<glyph unicode="&#xbc;" horiz-adv-x="1597" d="M106 696v109h525v-109h-525zM109 1182v127l194 84h131v-506h-131v379zM313 0l379 635h131l-329 -635h-181zM774 758l330 635h180l-379 -635h-131zM948 158v106l357 432h137v-350h-131v207l-318 -395h-45zM1098 158l86 106h354v-106h-96v-158h-131v158h-213z" />
<glyph unicode="&#xbd;" horiz-adv-x="1597" d="M106 696v109h525v-109h-525zM109 1182v127l194 84h131v-506h-131v379zM313 0l379 635h131l-329 -635h-181zM774 758l330 635h180l-379 -635h-131zM983 0v115h530v-115h-530zM993 535v114q116 58 252 58q111 0 182.5 -52t71.5 -155q0 -45 -14.5 -82t-52 -76.5t-70 -66.5 t-100.5 -78h-175q65 48 92 68.5t68.5 53t56 48.5t32.5 39t23 41t5 40q0 59 -39.5 86t-101.5 27q-117 0 -230 -65z" />
<glyph unicode="&#xbe;" horiz-adv-x="1597" d="M84 739v117q85 -50 192 -61v-107q-118 11 -192 51zM96 1284v109h482v-62l-211 -215q125 -5 186 -54t61 -147q0 -106 -68.5 -164.5t-187.5 -64.5v109q119 16 119 112q0 57 -44 82t-130 25h-106v78l182 192h-283zM313 0l379 635h131l-329 -635h-181zM774 758l330 635h180 l-379 -635h-131zM948 158v106l357 432h137v-350h-131v207l-318 -395h-45zM1098 158l86 106h354v-106h-96v-158h-131v158h-213z" />
<glyph unicode="&#xbf;" horiz-adv-x="1032" d="M68 20q0 377 458 414l21 221h168v-360q-408 0 -408 -256q0 -118 75 -177t200 -59q82 0 185 30t194 95v-209q-176 -108 -424 -108q-100 0 -183.5 24.5t-148 73.5t-101 128.5t-36.5 182.5zM526 801v223h195v-223h-195z" />
<glyph unicode="&#xc0;" horiz-adv-x="1400" d="M27 0l518 1329l106 -285l-379 -1044h-245zM401 1659v72l80 110l285 -252l-70 -94zM467 305l63 184h412l-342 914h244l520 -1403h-246l-110 305h-541z" />
<glyph unicode="&#xc1;" horiz-adv-x="1400" d="M27 0l518 1329l106 -285l-379 -1044h-245zM467 305l63 184h412l-342 914h244l520 -1403h-246l-110 305h-541zM633 1589l285 252l79 -110v-72l-292 -164z" />
<glyph unicode="&#xc2;" horiz-adv-x="1400" d="M27 0l518 1329l106 -285l-379 -1044h-245zM395 1591l307 250l306 -250l-66 -96l-240 166l-241 -166zM467 305l63 184h412l-342 914h244l520 -1403h-246l-110 305h-541z" />
<glyph unicode="&#xc3;" horiz-adv-x="1400" d="M27 0l518 1329l106 -285l-379 -1044h-245zM401 1526q0 125 44 174t120 49q43 0 129 -37t117 -37q29 0 47.5 17.5t18.5 56.5h127q0 -124 -44 -173.5t-120 -49.5q-49 0 -133 36.5t-115 36.5q-64 0 -64 -73h-127zM467 305l63 184h412l-342 914h244l520 -1403h-246l-110 305 h-541z" />
<glyph unicode="&#xc4;" horiz-adv-x="1400" d="M27 0l518 1329l106 -285l-379 -1044h-245zM420 1495v223h186v-223h-186zM467 305l63 184h412l-342 914h244l520 -1403h-246l-110 305h-541zM799 1495v223h184v-223h-184z" />
<glyph unicode="&#xc5;" horiz-adv-x="1400" d="M27 0l518 1329l106 -285l-379 -1044h-245zM467 305l63 184h412l-342 914h244l520 -1403h-246l-110 305h-541zM508 1690q0 69 44 121.5t110 66.5v-106q-24 -11 -38 -33t-14 -49t14 -49t38 -33v-109q-66 14 -110 67.5t-44 123.5zM743 1499v109q24 11 38 33t14 49t-14 49 t-38 33v106q65 -14 108.5 -67t43.5 -121q0 -70 -43 -123.5t-109 -67.5z" />
<glyph unicode="&#xc6;" horiz-adv-x="2119" d="M-20 0l927 1393h1092v-195h-967l-788 -1198h-264zM543 305l121 184h378v627h236v-1116h-236v305h-499zM1360 0v195h659v-195h-659zM1360 612v195h598v-195h-598z" />
<glyph unicode="&#xc7;" horiz-adv-x="1359" d="M90 696q0 318 180 510.5t484 206.5v-194q-194 -19 -306 -157t-112 -366t112 -365.5t306 -156.5v-194q-304 14 -484 206t-180 510zM621 -287l96 205h162l-88 -266h-170v61zM836 -20v192q238 7 426 137v-211q-189 -110 -426 -118zM836 1221v192q235 -8 426 -119v-211 q-190 131 -426 138z" />
<glyph unicode="&#xc8;" horiz-adv-x="1247" d="M170 0v1393h236v-1393h-236zM356 1659v72l80 110l285 -252l-70 -94zM487 0v195h660v-195h-660zM487 612v195h598v-195h-598zM487 1198v195h639v-195h-639z" />
<glyph unicode="&#xc9;" horiz-adv-x="1247" d="M170 0v1393h236v-1393h-236zM487 0v195h660v-195h-660zM487 612v195h598v-195h-598zM487 1198v195h639v-195h-639zM586 1589l284 252l80 -110v-72l-293 -164z" />
<glyph unicode="&#xca;" horiz-adv-x="1247" d="M170 0v1393h236v-1393h-236zM350 1591l307 250l306 -250l-66 -96l-240 166l-241 -166zM487 0v195h660v-195h-660zM487 612v195h598v-195h-598zM487 1198v195h639v-195h-639z" />
<glyph unicode="&#xcb;" horiz-adv-x="1247" d="M170 0v1393h236v-1393h-236zM373 1495v223h186v-223h-186zM487 0v195h660v-195h-660zM487 612v195h598v-195h-598zM487 1198v195h639v-195h-639zM752 1495v223h184v-223h-184z" />
<glyph unicode="&#xcc;" horiz-adv-x="575" d="M-10 1659v72l80 110l284 -252l-69 -94zM170 0v1393h236v-1393h-236z" />
<glyph unicode="&#xcd;" horiz-adv-x="575" d="M170 0v1393h236v-1393h-236zM219 1589l285 252l80 -110v-72l-293 -164z" />
<glyph unicode="&#xce;" horiz-adv-x="575" d="M-18 1591l307 250l305 -250l-66 -96l-239 166l-242 -166zM170 0v1393h236v-1393h-236z" />
<glyph unicode="&#xcf;" horiz-adv-x="575" d="M6 1495v223h187v-223h-187zM170 0v1393h236v-1393h-236zM385 1495v223h184v-223h-184z" />
<glyph unicode="&#xd0;" horiz-adv-x="1470" d="M35 621v176h149v596h236v-596h315v-176h-315v-621h-236v621h-149zM502 0v195h182q220 0 335.5 132.5t115.5 368.5q0 235 -115.5 368.5t-335.5 133.5h-182v195h182q167 0 300 -53t219 -147t131.5 -220.5t45.5 -276.5q0 -151 -45.5 -277.5t-131.5 -220t-219 -146 t-300 -52.5h-182z" />
<glyph unicode="&#xd1;" horiz-adv-x="1523" d="M170 0v1393h211v-1393h-211zM461 1526q0 125 44 174t120 49q43 0 128.5 -37t116.5 -37q29 0 47.5 17.5t18.5 56.5h127q0 -124 -44 -173.5t-120 -49.5q-49 0 -133 36.5t-115 36.5q-63 0 -63 -73h-127zM463 926v374l891 -1228v-72h-226zM1143 504v889h211v-1182z" />
<glyph unicode="&#xd2;" d="M88 696q0 145 43 271.5t123.5 223.5t206 156t282.5 66v-194q-133 -9 -226 -78.5t-138 -182.5t-45 -262q0 -228 105 -368.5t304 -153.5v-194q-157 7 -282.5 65t-206 155t-123.5 223.5t-43 272.5zM485 1659v72l80 110l285 -252l-70 -94zM825 -20v194q199 13 304.5 154 t105.5 368q0 226 -105.5 368t-304.5 155v194q157 -7 282.5 -66t206.5 -156t124 -223.5t43 -271.5q0 -146 -43 -272.5t-124 -223.5t-206.5 -155t-282.5 -65z" />
<glyph unicode="&#xd3;" d="M88 696q0 145 43 271.5t123.5 223.5t206 156t282.5 66v-194q-133 -9 -226 -78.5t-138 -182.5t-45 -262q0 -228 105 -368.5t304 -153.5v-194q-157 7 -282.5 65t-206 155t-123.5 223.5t-43 272.5zM717 1589l284 252l80 -110v-72l-293 -164zM825 -20v194q199 13 304.5 154 t105.5 368q0 226 -105.5 368t-304.5 155v194q157 -7 282.5 -66t206.5 -156t124 -223.5t43 -271.5q0 -146 -43 -272.5t-124 -223.5t-206.5 -155t-282.5 -65z" />
<glyph unicode="&#xd4;" d="M88 696q0 145 43 271.5t123.5 223.5t206 156t282.5 66v-194q-133 -9 -226 -78.5t-138 -182.5t-45 -262q0 -228 105 -368.5t304 -153.5v-194q-157 7 -282.5 65t-206 155t-123.5 223.5t-43 272.5zM479 1591l307 250l306 -250l-66 -96l-240 166l-241 -166zM825 -20v194 q199 13 304.5 154t105.5 368q0 226 -105.5 368t-304.5 155v194q157 -7 282.5 -66t206.5 -156t124 -223.5t43 -271.5q0 -146 -43 -272.5t-124 -223.5t-206.5 -155t-282.5 -65z" />
<glyph unicode="&#xd5;" d="M88 696q0 145 43 271.5t123.5 223.5t206 156t282.5 66v-194q-133 -9 -226 -78.5t-138 -182.5t-45 -262q0 -228 105 -368.5t304 -153.5v-194q-157 7 -282.5 65t-206 155t-123.5 223.5t-43 272.5zM483 1526q0 125 44 174t120 49q43 0 129 -37t117 -37q65 0 65 74h127 q0 -124 -43.5 -173.5t-119.5 -49.5q-49 0 -133 36.5t-115 36.5q-64 0 -64 -73h-127zM825 -20v194q199 13 304.5 154t105.5 368q0 226 -105.5 368t-304.5 155v194q157 -7 282.5 -66t206.5 -156t124 -223.5t43 -271.5q0 -146 -43 -272.5t-124 -223.5t-206.5 -155t-282.5 -65z " />
<glyph unicode="&#xd6;" d="M88 696q0 145 43 271.5t123.5 223.5t206 156t282.5 66v-194q-133 -9 -226 -78.5t-138 -182.5t-45 -262q0 -228 105 -368.5t304 -153.5v-194q-157 7 -282.5 65t-206 155t-123.5 223.5t-43 272.5zM504 1495v223h186v-223h-186zM825 -20v194q199 13 304.5 154t105.5 368 q0 226 -105.5 368t-304.5 155v194q157 -7 282.5 -66t206.5 -156t124 -223.5t43 -271.5q0 -146 -43 -272.5t-124 -223.5t-206.5 -155t-282.5 -65zM883 1495v223h184v-223h-184z" />
<glyph unicode="&#xd7;" horiz-adv-x="1036" d="M66 336l331 332l-331 333l124 125l332 -333l332 333l125 -125l-332 -333l332 -332l-125 -125l-332 334l-332 -334z" />
<glyph unicode="&#xd8;" d="M88 696q0 150 45.5 279.5t131 227.5t219.5 154t300 56q198 0 357 -86l123 168h190l-184 -258q102 -98 156.5 -238t54.5 -303q0 -151 -45.5 -280.5t-131.5 -227t-220 -153t-300 -55.5q-197 0 -356 86l-121 -168h-192l184 258q-102 96 -156.5 235.5t-54.5 304.5zM334 696 q0 -210 106 -344l580 805q-98 64 -236 64q-218 0 -334 -143.5t-116 -381.5zM549 236q98 -64 235 -64q218 0 334.5 142.5t116.5 381.5q0 209 -107 344z" />
<glyph unicode="&#xd9;" horiz-adv-x="1454" d="M156 508v885h235v-842q0 -176 66.5 -271.5t228.5 -105.5v-194q-115 5 -206.5 36.5t-151 80.5t-99 116.5t-56.5 140t-17 154.5zM428 1659v72l80 110l285 -252l-70 -94zM768 -20v194q162 10 228.5 105.5t66.5 271.5v842h235v-885q0 -105 -29 -194.5t-89.5 -164t-165.5 -119 t-246 -50.5z" />
<glyph unicode="&#xda;" horiz-adv-x="1454" d="M156 508v885h235v-842q0 -176 66.5 -271.5t228.5 -105.5v-194q-115 5 -206.5 36.5t-151 80.5t-99 116.5t-56.5 140t-17 154.5zM659 1589l285 252l80 -110v-72l-293 -164zM768 -20v194q162 10 228.5 105.5t66.5 271.5v842h235v-885q0 -105 -29 -194.5t-89.5 -164 t-165.5 -119t-246 -50.5z" />
<glyph unicode="&#xdb;" horiz-adv-x="1454" d="M156 508v885h235v-842q0 -176 66.5 -271.5t228.5 -105.5v-194q-115 5 -206.5 36.5t-151 80.5t-99 116.5t-56.5 140t-17 154.5zM422 1591l307 250l305 -250l-65 -96l-240 166l-242 -166zM768 -20v194q162 10 228.5 105.5t66.5 271.5v842h235v-885q0 -105 -29 -194.5 t-89.5 -164t-165.5 -119t-246 -50.5z" />
<glyph unicode="&#xdc;" horiz-adv-x="1454" d="M156 508v885h235v-842q0 -176 66.5 -271.5t228.5 -105.5v-194q-115 5 -206.5 36.5t-151 80.5t-99 116.5t-56.5 140t-17 154.5zM446 1495v223h187v-223h-187zM768 -20v194q162 10 228.5 105.5t66.5 271.5v842h235v-885q0 -105 -29 -194.5t-89.5 -164t-165.5 -119 t-246 -50.5zM825 1495v223h185v-223h-185z" />
<glyph unicode="&#xdd;" horiz-adv-x="1343" d="M25 1393h249l514 -904v-489h-235v461zM602 1589l285 252l80 -110v-72l-293 -164zM725 768l346 625h250l-477 -836z" />
<glyph unicode="&#xde;" horiz-adv-x="1265" d="M170 0v1393h236v-1393h-236zM487 264v197h193q137 0 209 58t72 186t-72 185.5t-209 57.5h-193v195h213q246 0 376 -115.5t130 -322.5q0 -208 -130 -324.5t-376 -116.5h-213z" />
<glyph unicode="&#xdf;" horiz-adv-x="1177" d="M141 0v1108q0 160 76 232.5t223 72.5q89 0 168 -20v-170q-58 18 -123 18q-61 0 -89.5 -29.5t-28.5 -109.5v-1102h-226zM449 858v166h614l-244 -418q135 -60 208 -157.5t73 -253.5q0 -225 -153 -353.5t-415 -128.5v172q158 0 244 80t86 230q0 124 -89 203.5t-224 97.5 l221 362h-321z" />
<glyph unicode="&#xe0;" horiz-adv-x="1150" d="M76 281q0 342 512 342h125v-154h-109q-162 0 -228.5 -42.5t-66.5 -119.5q0 -73 54.5 -114t144.5 -41q125 0 205 69v-149q-114 -92 -283 -92q-162 0 -258 85.5t-96 215.5zM127 715v190q69 63 182.5 101t251.5 38q225 0 342 -101t117 -277v-666h-225v676q0 85 -61 137.5 t-195 52.5q-111 0 -222.5 -37t-189.5 -114zM272 1290v72l80 111l285 -252l-70 -95z" />
<glyph unicode="&#xe1;" horiz-adv-x="1150" d="M76 281q0 342 512 342h125v-154h-109q-162 0 -228.5 -42.5t-66.5 -119.5q0 -73 54.5 -114t144.5 -41q125 0 205 69v-149q-114 -92 -283 -92q-162 0 -258 85.5t-96 215.5zM127 715v190q69 63 182.5 101t251.5 38q225 0 342 -101t117 -277v-666h-225v676q0 85 -61 137.5 t-195 52.5q-111 0 -222.5 -37t-189.5 -114zM504 1221l284 252l80 -111v-72l-293 -164z" />
<glyph unicode="&#xe2;" horiz-adv-x="1150" d="M76 281q0 342 512 342h125v-154h-109q-162 0 -228.5 -42.5t-66.5 -119.5q0 -73 54.5 -114t144.5 -41q125 0 205 69v-149q-114 -92 -283 -92q-162 0 -258 85.5t-96 215.5zM127 715v190q69 63 182.5 101t251.5 38q225 0 342 -101t117 -277v-666h-225v676q0 85 -61 137.5 t-195 52.5q-111 0 -222.5 -37t-189.5 -114zM266 1223l307 250l306 -250l-66 -97l-240 166l-241 -166z" />
<glyph unicode="&#xe3;" horiz-adv-x="1150" d="M76 281q0 342 512 342h125v-154h-109q-162 0 -228.5 -42.5t-66.5 -119.5q0 -73 54.5 -114t144.5 -41q125 0 205 69v-149q-114 -92 -283 -92q-162 0 -258 85.5t-96 215.5zM127 715v190q69 63 182.5 101t251.5 38q225 0 342 -101t117 -277v-666h-225v676q0 85 -61 137.5 t-195 52.5q-111 0 -222.5 -37t-189.5 -114zM270 1157q0 125 44 174t120 49q43 0 129 -36.5t117 -36.5q65 0 65 73h127q0 -124 -43.5 -173.5t-119.5 -49.5q-49 0 -133 37t-115 37q-64 0 -64 -74h-127z" />
<glyph unicode="&#xe4;" horiz-adv-x="1150" d="M76 281q0 342 512 342h125v-154h-109q-162 0 -228.5 -42.5t-66.5 -119.5q0 -73 54.5 -114t144.5 -41q125 0 205 69v-149q-114 -92 -283 -92q-162 0 -258 85.5t-96 215.5zM127 715v190q69 63 182.5 101t251.5 38q225 0 342 -101t117 -277v-666h-225v676q0 85 -61 137.5 t-195 52.5q-111 0 -222.5 -37t-189.5 -114zM291 1126v224h186v-224h-186zM670 1126v224h184v-224h-184z" />
<glyph unicode="&#xe5;" horiz-adv-x="1150" d="M76 281q0 342 512 342h125v-154h-109q-162 0 -228.5 -42.5t-66.5 -119.5q0 -73 54.5 -114t144.5 -41q125 0 205 69v-149q-114 -92 -283 -92q-162 0 -258 85.5t-96 215.5zM127 715v190q69 63 182.5 101t251.5 38q225 0 342 -101t117 -277v-666h-225v676q0 85 -61 137.5 t-195 52.5q-111 0 -222.5 -37t-189.5 -114zM377 1321q0 69 43.5 121.5t109.5 66.5v-106q-51 -23 -51 -82t51 -82v-109q-66 14 -109.5 67.5t-43.5 123.5zM612 1130v109q24 11 38 33t14 49t-14 49t-38 33v106q65 -14 108.5 -67t43.5 -121q0 -70 -43 -123.5t-109 -67.5z" />
<glyph unicode="&#xe6;" horiz-adv-x="1882" d="M76 281q0 175 129.5 253t382.5 78h125v-153h-109q-84 0 -142.5 -10.5t-91.5 -31t-47 -47t-14 -63.5q0 -73 54.5 -114t144.5 -41q135 0 223 98l80 -125q-148 -145 -381 -145q-162 0 -258 85.5t-96 215.5zM127 715v190q69 63 182.5 101t251.5 38q141 0 236 -46.5 t141 -127.5q118 159 342 174v-174q-114 -12 -177 -90.5t-65 -201.5v-72q0 -189 80 -271.5t242 -82.5q256 0 405 149v-184q-65 -58 -175.5 -97.5t-262.5 -39.5q-147 0 -267.5 57.5t-192.5 166.5t-72 249v223q0 85 -61 137.5t-195 52.5q-111 0 -222.5 -37t-189.5 -114z M1120 465l4 149h457q-1 40 -7 72.5t-21 66t-38 57t-62 40t-91 20.5v172q98 -5 175 -35.5t125.5 -77.5t80 -111.5t44.5 -133t13 -147.5q0 -26 -4 -72h-676z" />
<glyph unicode="&#xe7;" horiz-adv-x="1077" d="M82 512q0 240 137 383t375 149v-174q-125 -15 -200 -108.5t-75 -249.5t75 -249.5t200 -108.5v-174q-238 6 -375 149t-137 383zM424 -287l96 205h162l-88 -266h-170v61zM676 -18v170q170 11 305 149v-195q-45 -45 -123.5 -79.5t-181.5 -44.5zM676 872v170 q103 -10 181.5 -44.5t123.5 -79.5v-195q-135 138 -305 149z" />
<glyph unicode="&#xe8;" horiz-adv-x="1169" d="M82 512q0 233 132 376.5t353 155.5v-174q-252 -24 -252 -364q0 -176 86.5 -265t245.5 -89q260 0 406 149v-184q-65 -58 -176 -97.5t-263 -39.5q-251 0 -391.5 142.5t-140.5 389.5zM303 1290v72l80 111l285 -252l-70 -95zM399 465v149h469q-1 40 -7 72.5t-21 66t-38 57 t-62 40t-91 20.5v172q98 -5 175 -35.5t125.5 -77.5t80 -111.5t44.5 -133t13 -147.5q0 -26 -4 -72h-684z" />
<glyph unicode="&#xe9;" horiz-adv-x="1169" d="M82 512q0 233 132 376.5t353 155.5v-174q-252 -24 -252 -364q0 -176 86.5 -265t245.5 -89q260 0 406 149v-184q-65 -58 -176 -97.5t-263 -39.5q-251 0 -391.5 142.5t-140.5 389.5zM399 465v149h469q-1 40 -7 72.5t-21 66t-38 57t-62 40t-91 20.5v172q98 -5 175 -35.5 t125.5 -77.5t80 -111.5t44.5 -133t13 -147.5q0 -26 -4 -72h-684zM535 1221l284 252l80 -111v-72l-293 -164z" />
<glyph unicode="&#xea;" horiz-adv-x="1169" d="M82 512q0 233 132 376.5t353 155.5v-174q-252 -24 -252 -364q0 -176 86.5 -265t245.5 -89q260 0 406 149v-184q-65 -58 -176 -97.5t-263 -39.5q-251 0 -391.5 142.5t-140.5 389.5zM297 1223l307 250l305 -250l-65 -97l-240 166l-242 -166zM399 465v149h469q-1 40 -7 72.5 t-21 66t-38 57t-62 40t-91 20.5v172q98 -5 175 -35.5t125.5 -77.5t80 -111.5t44.5 -133t13 -147.5q0 -26 -4 -72h-684z" />
<glyph unicode="&#xeb;" horiz-adv-x="1169" d="M82 512q0 233 132 376.5t353 155.5v-174q-252 -24 -252 -364q0 -176 86.5 -265t245.5 -89q260 0 406 149v-184q-65 -58 -176 -97.5t-263 -39.5q-251 0 -391.5 142.5t-140.5 389.5zM322 1126v224h186v-224h-186zM399 465v149h469q-1 40 -7 72.5t-21 66t-38 57t-62 40 t-91 20.5v172q98 -5 175 -35.5t125.5 -77.5t80 -111.5t44.5 -133t13 -147.5q0 -26 -4 -72h-684zM700 1126v224h185v-224h-185z" />
<glyph unicode="&#xec;" horiz-adv-x="507" d="M-45 1290v72l80 111l284 -252l-69 -95zM141 0v1024h226v-1024h-226z" />
<glyph unicode="&#xed;" horiz-adv-x="507" d="M141 0v1024h226v-1024h-226zM186 1221l285 252l80 -111v-72l-293 -164z" />
<glyph unicode="&#xee;" horiz-adv-x="507" d="M-51 1223l307 250l305 -250l-65 -97l-240 166l-242 -166zM141 0v1024h226v-1024h-226z" />
<glyph unicode="&#xef;" horiz-adv-x="507" d="M-27 1126v224h187v-224h-187zM141 0v1024h226v-1024h-226zM352 1126v224h185v-224h-185z" />
<glyph unicode="&#xf0;" horiz-adv-x="1271" d="M86 457q0 179 123 298t323 119q195 0 334 -110v-152q-115 103 -260 103q-126 0 -204 -73.5t-78 -195.5q0 -110 73 -186.5t187 -85.5v-192q-234 12 -366 148t-132 327zM164 1096v209q159 93 307 104v158h162v-510h-162v160q-134 -13 -307 -121zM666 -18v194 q77 10 133 49.5t88.5 102.5t47.5 139t15 168q0 460 -235 551v213q121 -25 213.5 -96t146 -171.5t79.5 -215t26 -240.5q0 -148 -31.5 -270t-93.5 -215t-161 -147.5t-228 -61.5z" />
<glyph unicode="&#xf1;" horiz-adv-x="1202" d="M141 0v1024h226v-1024h-226zM330 1157q0 125 44 174t120 49q43 0 128.5 -36.5t116.5 -36.5q66 0 66 73h127q0 -124 -44 -173.5t-120 -49.5q-49 0 -133 37t-115 37q-63 0 -63 -74h-127zM449 721v192q111 131 288 131q171 0 252.5 -102t81.5 -287v-655h-225v627 q0 235 -193 235q-131 0 -204 -141z" />
<glyph unicode="&#xf2;" horiz-adv-x="1206" d="M82 512q0 105 31 197t89 164.5t150 117t207 51.5v-172q-83 -12 -139 -68.5t-78.5 -130t-22.5 -159.5q0 -87 22.5 -160.5t78.5 -129.5t139 -68v-172q-115 7 -207 51.5t-150 117t-89 164.5t-31 197zM303 1290v72l80 111l285 -252l-70 -95zM641 -18v172q86 11 143 67 t80 129.5t23 161.5t-23 161.5t-80 129.5t-143 67v172q154 -8 265.5 -82.5t164.5 -190t53 -257.5t-53 -257.5t-164.5 -190t-265.5 -82.5z" />
<glyph unicode="&#xf3;" horiz-adv-x="1206" d="M82 512q0 105 31 197t89 164.5t150 117t207 51.5v-172q-83 -12 -139 -68.5t-78.5 -130t-22.5 -159.5q0 -87 22.5 -160.5t78.5 -129.5t139 -68v-172q-115 7 -207 51.5t-150 117t-89 164.5t-31 197zM535 1221l284 252l80 -111v-72l-293 -164zM641 -18v172q86 11 143 67 t80 129.5t23 161.5t-23 161.5t-80 129.5t-143 67v172q154 -8 265.5 -82.5t164.5 -190t53 -257.5t-53 -257.5t-164.5 -190t-265.5 -82.5z" />
<glyph unicode="&#xf4;" horiz-adv-x="1206" d="M82 512q0 105 31 197t89 164.5t150 117t207 51.5v-172q-83 -12 -139 -68.5t-78.5 -130t-22.5 -159.5q0 -87 22.5 -160.5t78.5 -129.5t139 -68v-172q-115 7 -207 51.5t-150 117t-89 164.5t-31 197zM297 1223l307 250l305 -250l-65 -97l-240 166l-242 -166zM641 -18v172 q86 11 143 67t80 129.5t23 161.5t-23 161.5t-80 129.5t-143 67v172q154 -8 265.5 -82.5t164.5 -190t53 -257.5t-53 -257.5t-164.5 -190t-265.5 -82.5z" />
<glyph unicode="&#xf5;" horiz-adv-x="1206" d="M82 512q0 105 31 197t89 164.5t150 117t207 51.5v-172q-83 -12 -139 -68.5t-78.5 -130t-22.5 -159.5q0 -87 22.5 -160.5t78.5 -129.5t139 -68v-172q-115 7 -207 51.5t-150 117t-89 164.5t-31 197zM303 1157q0 125 44 174t120 49q43 0 129 -36.5t117 -36.5q65 0 65 73h127 q0 -124 -44 -173.5t-120 -49.5q-49 0 -132.5 37t-114.5 37q-64 0 -64 -74h-127zM641 -18v172q86 11 143 67t80 129.5t23 161.5t-23 161.5t-80 129.5t-143 67v172q154 -8 265.5 -82.5t164.5 -190t53 -257.5t-53 -257.5t-164.5 -190t-265.5 -82.5z" />
<glyph unicode="&#xf6;" horiz-adv-x="1206" d="M82 512q0 105 31 197t89 164.5t150 117t207 51.5v-172q-83 -12 -139 -68.5t-78.5 -130t-22.5 -159.5q0 -87 22.5 -160.5t78.5 -129.5t139 -68v-172q-115 7 -207 51.5t-150 117t-89 164.5t-31 197zM322 1126v224h186v-224h-186zM641 -18v172q86 11 143 67t80 129.5 t23 161.5t-23 161.5t-80 129.5t-143 67v172q154 -8 265.5 -82.5t164.5 -190t53 -257.5t-53 -257.5t-164.5 -190t-265.5 -82.5zM700 1126v224h185v-224h-185z" />
<glyph unicode="&#xf7;" horiz-adv-x="1153" d="M123 582v176h909v-176h-909zM504 193v223h190v-223h-190zM504 928v223h190v-223h-190z" />
<glyph unicode="&#xf8;" horiz-adv-x="1206" d="M82 512q0 105 31 197t89 164.5t150 117t207 51.5v-172q-83 -12 -139 -68.5t-78.5 -130t-22.5 -159.5q0 -87 22.5 -160.5t78.5 -129.5t139 -68v-172q-115 7 -207 51.5t-150 117t-89 164.5t-31 197zM143 -102l78 122l103 -63l-39 -59h-142zM430 352l266 416l82 -100 l-268 -414zM641 -18v172q86 11 143 67t80 129.5t23 161.5q0 64 -13.5 122t-41.5 109t-77 85t-114 42v172q154 -8 265.5 -82.5t164.5 -190t53 -257.5t-53 -257.5t-164.5 -190t-265.5 -82.5zM885 1067l39 59h141l-78 -122z" />
<glyph unicode="&#xf9;" horiz-adv-x="1191" d="M131 369v655h225v-627q0 -235 193 -235q132 0 205 141v-192q-111 -131 -289 -131q-171 0 -252.5 102t-81.5 287zM303 1290v72l80 111l285 -252l-70 -95zM836 0v1024h225v-1024h-225z" />
<glyph unicode="&#xfa;" horiz-adv-x="1191" d="M131 369v655h225v-627q0 -235 193 -235q132 0 205 141v-192q-111 -131 -289 -131q-171 0 -252.5 102t-81.5 287zM532 1221l285 252l80 -111v-72l-293 -164zM836 0v1024h225v-1024h-225z" />
<glyph unicode="&#xfb;" horiz-adv-x="1191" d="M131 369v655h225v-627q0 -235 193 -235q132 0 205 141v-192q-111 -131 -289 -131q-171 0 -252.5 102t-81.5 287zM295 1223l307 250l305 -250l-65 -97l-240 166l-242 -166zM836 0v1024h225v-1024h-225z" />
<glyph unicode="&#xfc;" horiz-adv-x="1191" d="M131 369v655h225v-627q0 -235 193 -235q132 0 205 141v-192q-111 -131 -289 -131q-171 0 -252.5 102t-81.5 287zM319 1126v224h187v-224h-187zM698 1126v224h185v-224h-185zM836 0v1024h225v-1024h-225z" />
<glyph unicode="&#xfd;" horiz-adv-x="1148" d="M35 1024h244l249 -602l-116 -275zM266 -410l604 1434h244l-614 -1434h-234zM506 1221l285 252l79 -111v-72l-292 -164z" />
<glyph unicode="&#xfe;" horiz-adv-x="1232" d="M141 -389v1782h226v-1782h-226zM449 66v174q73 -88 194 -88q91 0 152.5 49.5t87.5 128t26 182.5t-26 182.5t-87.5 128t-152.5 49.5q-121 0 -194 -88v174q106 86 258 86q206 0 323 -142t117 -390t-117 -390t-323 -142q-152 0 -258 86z" />
<glyph unicode="&#xff;" horiz-adv-x="1148" d="M35 1024h244l249 -602l-116 -275zM266 -410l604 1434h244l-614 -1434h-234zM293 1126v224h186v-224h-186zM672 1126v224h184v-224h-184z" />
<glyph unicode="&#x152;" horiz-adv-x="2125" d="M88 696q0 150 45.5 276.5t131.5 220.5t219 147t300 53h185v-195h-185q-220 0 -335 -133.5t-115 -368.5q0 -236 115 -368.5t335 -132.5h185v-195h-185q-167 0 -300 52.5t-219 146t-131.5 220t-45.5 277.5zM1051 0v1393h235v-1393h-235zM1368 0v195h660v-195h-660z M1368 612v195h598v-195h-598zM1368 1198v195h639v-195h-639z" />
<glyph unicode="&#x153;" horiz-adv-x="1974" d="M82 512q0 105 31 197t89 164.5t150 117t207 51.5v-172q-83 -12 -139 -68.5t-78.5 -130t-22.5 -159.5q0 -87 22.5 -160.5t78.5 -129.5t139 -68v-172q-115 7 -207 51.5t-150 117t-89 164.5t-31 197zM641 -18v172q86 11 143 67t80 129.5t23 161.5t-23 161.5t-80 129.5 t-143 67v172q227 -11 365 -211q65 95 158.5 151t207.5 62v-174q-248 -26 -248 -358q0 -360 328 -360q260 0 406 149v-184q-65 -58 -176 -97.5t-263 -39.5q-135 0 -240.5 55t-174.5 155q-138 -197 -363 -208zM1204 465v149h469q-1 40 -7 72.5t-21 66t-38 57t-62 40t-91 20.5 v172q98 -5 175 -35.5t125.5 -77.5t80 -111.5t44.5 -133t13 -147.5q0 -26 -4 -72h-684z" />
<glyph unicode="&#x178;" horiz-adv-x="1343" d="M25 1393h249l514 -904v-489h-235v461zM389 1495v223h186v-223h-186zM725 768l346 625h250l-477 -836zM768 1495v223h184v-223h-184z" />
<glyph unicode="&#x2c6;" horiz-adv-x="817" d="M102 1223l308 250l305 -250l-66 -97l-239 166l-242 -166z" />
<glyph unicode="&#x2dc;" horiz-adv-x="806" d="M102 1157q0 125 44 174t120 49q43 0 129 -36.5t117 -36.5q66 0 66 73h127q0 -124 -44 -173.5t-120 -49.5q-49 0 -133 37t-115 37q-64 0 -64 -74h-127z" />
<glyph unicode="&#x2000;" horiz-adv-x="939" />
<glyph unicode="&#x2001;" horiz-adv-x="1878" />
<glyph unicode="&#x2002;" horiz-adv-x="939" />
<glyph unicode="&#x2003;" horiz-adv-x="1878" />
<glyph unicode="&#x2004;" horiz-adv-x="626" />
<glyph unicode="&#x2005;" horiz-adv-x="469" />
<glyph unicode="&#x2006;" horiz-adv-x="313" />
<glyph unicode="&#x2007;" horiz-adv-x="313" />
<glyph unicode="&#x2008;" horiz-adv-x="234" />
<glyph unicode="&#x2009;" horiz-adv-x="375" />
<glyph unicode="&#x200a;" horiz-adv-x="104" />
<glyph unicode="&#x2010;" horiz-adv-x="964" d="M129 508v176h707v-176h-707z" />
<glyph unicode="&#x2011;" horiz-adv-x="964" d="M129 508v176h707v-176h-707z" />
<glyph unicode="&#x2012;" horiz-adv-x="964" d="M129 508v176h707v-176h-707z" />
<glyph unicode="&#x2013;" horiz-adv-x="1374" d="M129 508v176h1116v-176h-1116z" />
<glyph unicode="&#x2014;" horiz-adv-x="1988" d="M129 508v176h1731v-176h-1731z" />
<glyph unicode="&#x2018;" horiz-adv-x="481" d="M125 934v184q0 85 10 134.5t39.5 83t79 45.5t133.5 12v-136q-30 0 -43.5 -6.5t-23 -37.5t-9.5 -95v-184h-186z" />
<glyph unicode="&#x2019;" horiz-adv-x="481" d="M109 934v135q23 0 35 3t23 16t15 41.5t4 76.5v187h185v-187q0 -67 -6.5 -110.5t-22.5 -77t-46.5 -50.5t-75 -25.5t-111.5 -8.5z" />
<glyph unicode="&#x201a;" horiz-adv-x="444" d="M129 31v192h186v-192l-34 -267h-117z" />
<glyph unicode="&#x201c;" horiz-adv-x="827" d="M125 934v184q0 85 10 134.5t39.5 83t79 45.5t133.5 12v-136q-30 0 -43.5 -6.5t-23 -37.5t-9.5 -95v-184h-186zM469 934v184q0 85 10 134.5t39.5 83t79 45.5t133.5 12v-136q-30 0 -43.5 -6.5t-23 -37.5t-9.5 -95v-184h-186z" />
<glyph unicode="&#x201d;" horiz-adv-x="827" d="M109 934v135q23 0 35 3t23 16t15 41.5t4 76.5v187h185v-187q0 -67 -6.5 -110.5t-22.5 -77t-46.5 -50.5t-75 -25.5t-111.5 -8.5zM455 934v135q30 0 43.5 6.5t22.5 36.5t9 94v187h187v-187q0 -67 -6.5 -110.5t-22.5 -77t-46.5 -50.5t-75 -25.5t-111.5 -8.5z" />
<glyph unicode="&#x201e;" horiz-adv-x="770" d="M129 31v192h186v-192l-34 -267h-117zM455 31v192h186v-192l-35 -267h-117z" />
<glyph unicode="&#x2022;" horiz-adv-x="647" d="M176 365v274h295v-274h-295z" />
<glyph unicode="&#x2026;" horiz-adv-x="1159" d="M129 0v223h186v-223h-186zM487 0v223h185v-223h-185zM844 0v223h184v-223h-184z" />
<glyph unicode="&#x202f;" horiz-adv-x="375" />
<glyph unicode="&#x2039;" horiz-adv-x="673" d="M78 512l348 403h156l-332 -403l332 -403h-156z" />
<glyph unicode="&#x203a;" horiz-adv-x="673" d="M90 109l334 403l-334 403h158l346 -403l-346 -403h-158z" />
<glyph unicode="&#x205f;" horiz-adv-x="469" />
<glyph unicode="&#x20ac;" horiz-adv-x="1511" d="M82 477v127h848v-127h-432q46 -144 159 -224.5t273 -80.5q255 0 452 137v-211q-205 -118 -467 -118q-261 0 -439.5 131.5t-237.5 365.5h-156zM82 778v127h154q56 238 235.5 373t443.5 135q260 0 467 -119v-211q-199 138 -452 138q-163 0 -277 -83.5t-159 -232.5h436v-127 h-848z" />
<glyph unicode="&#x2122;" horiz-adv-x="1480" d="M121 1296v97h477v-97h-477zM303 776v438h113v-438h-113zM692 776v484l107 -261v-223h-107zM725 1395h106l228 -557l-27 -62h-55zM1053 1067l135 328h98l-182 -451zM1214 776v230l113 274v-504h-113z" />
<glyph unicode="&#xe000;" horiz-adv-x="1024" d="M0 0v1024h1024v-1024h-1024z" />
</font>
</defs>
</svg>
