<?xml version="1.0" encoding="utf-8"?>
<!-- Generator: Adobe Illustrator 16.0.0, SVG Export Plug-In . SVG Version: 6.00 Build 0)  -->
<!DOCTYPE svg PUBLIC "-//W3C//DTD SVG 1.1//EN" "http://www.w3.org/Graphics/SVG/1.1/DTD/svg11.dtd">
<svg version="1.1" id="Layer_1" xmlns="http://www.w3.org/2000/svg" xmlns:xlink="http://www.w3.org/1999/xlink" x="0px" y="0px"
	 width="251.333px" height="175.334px" viewBox="0 0 251.333 175.334" enable-background="new 0 0 251.333 175.334"
	 xml:space="preserve">
<path fill-rule="evenodd" clip-rule="evenodd" fill="#FFFFFF" stroke="#FFFFFF" stroke-miterlimit="10" d="M126.236,9.633
	c0-3.036-3.777-3.778-3.777-3.778s0.004,124.019,0,136.005c16.006,0,18.889,30.222,18.889,30.222h30.222
	C129.51,134.178,126.236,12.668,126.236,9.633z"/>
<path fill-rule="evenodd" clip-rule="evenodd" fill="#FFFFFF" stroke="#FFFFFF" stroke-miterlimit="10" d="M73.618,172.082h30.222
	c0,0,2.883-30.222,18.888-30.222c-0.003-11.986,0-136.005,0-136.005s-3.777,0.742-3.777,3.778
	C118.951,12.668,115.676,134.178,73.618,172.082z"/>
<path fill-rule="evenodd" clip-rule="evenodd" fill="#4993CF" d="M95.633,121.5h53.649v4.45H95.633V121.5z"/>
<path fill-rule="evenodd" clip-rule="evenodd" fill="none" stroke="#4993CF" stroke-width="2" stroke-miterlimit="10" d="
	M152.79,99.002c65.304,11.962,100.743,29.418,78.967,37.942c-21.543,8.43-87.688,4.788-144.734-6.284
	c-56.315-10.935-90.854-26.438-75.864-35.38C25.481,86.737,85.594,86.691,152.79,99.002z"/>
<path fill-rule="evenodd" clip-rule="evenodd" fill="#FFFFFF" d="M80.366,121.5c4.282,0,7.752,3.473,7.752,7.755
	c0,4.279-3.47,7.752-7.752,7.752s-7.752-3.473-7.752-7.752C72.614,124.973,76.084,121.5,80.366,121.5z"/>
<path fill-rule="evenodd" clip-rule="evenodd" fill="#4993CF" d="M102.995,84.951h39.465v3.45h-39.465V84.951z"/>
<path fill-rule="evenodd" clip-rule="evenodd" fill="#FFFFFF" d="M59.833,85.801c1.75,0,3.168,1.418,3.168,3.168
	c0,1.75-1.417,3.167-3.168,3.167c-1.749,0-3.167-1.417-3.167-3.167C56.667,87.219,58.084,85.801,59.833,85.801z"/>
<path fill-rule="evenodd" clip-rule="evenodd" fill="#FFFFFF" d="M237.506,125.95c2.854,0,5.168,2.315,5.168,5.171
	c0,2.852-2.313,5.167-5.168,5.167s-5.168-2.315-5.168-5.167C232.338,128.266,234.652,125.95,237.506,125.95z"/>
</svg>
